<svg xmlns="http://www.w3.org/2000/svg" xmlns:xlink="http://www.w3.org/1999/xlink" width="39px" height="58px" viewBox="0 0 39 58" version="1.1">
    <g stroke="none" stroke-width="1" fill="none" fill-rule="evenodd">
        <path d="M24.3564882,57.1877426 C26.2212343,57.1877426 27.3623476,56.3806137 27.8911562,54.6550277 L28.8374452,51.7048324 C29.3940858,49.9792465 30.2568788,48.9772934 31.7041444,48.1701645 C34.7100038,46.5002426 36.2964296,43.4943832 36.2964296,39.4030746 L36.2964296,26.8229965 L36.6025819,26.8229965 C38.0498476,26.8229965 38.9683046,25.8210434 38.9683046,24.2902816 L38.9683046,20.6999496 C38.9683046,19.1413559 38.0498476,18.1394027 36.6025819,18.1394027 L36.2964296,18.1394027 L36.2964296,17.8332504 C36.2964296,13.7419418 34.7100038,10.7639145 31.7041444,9.06616055 C30.2568788,8.25903165 29.3940858,7.25707852 28.8374452,5.53149258 L27.8911562,2.58129727 C27.4180116,0.911375396 26.1934022,0.0485824276 24.3564882,0.0485824276 L12.1103944,0.0485824276 C10.3013124,0.0485824276 9.048871,0.883543365 8.54789444,2.58129727 L7.60160537,5.53149258 C7.07279678,7.25707852 6.21000381,8.28686368 4.73490615,9.06616055 C1.75687881,10.6804184 0.142620998,13.7141098 0.142620998,17.8332504 L0.142620998,39.4030746 C0.142620998,43.4943832 1.72904678,46.5002426 4.73490615,48.1701645 C6.18217178,48.9772934 7.04496475,49.9792465 7.60160537,51.7048324 L8.54789444,54.6550277 C9.048871,56.3527816 10.3013124,57.1877426 12.1103944,57.1877426 L24.3564882,57.1877426 Z M26.0264101,44.8859848 L10.4126405,44.8859848 C6.62748428,44.8859848 4.37308975,42.5759262 4.37308975,38.6794418 L4.37308975,18.5568832 C4.37308975,14.6603988 6.62748428,12.3503402 10.4126405,12.3503402 L26.0264101,12.3503402 C29.8393983,12.3503402 32.0659608,14.6882309 32.0659608,18.5568832 L32.0659608,38.6794418 C32.0659608,42.5759262 29.8393983,44.8859848 26.0264101,44.8859848 Z" id="􀟤" fill="#027AFF" fill-rule="nonzero"/>
    </g>
</svg>