<svg xmlns="http://www.w3.org/2000/svg" viewBox="0 0 1200 800" width="64" height="64"><g fill="#d70751"><path d="M706.38 433.32c-19.85.473 3.78 10.398 29.776 14.18 7.1-5.672 13.706-11.343 19.378-16.542-16.07 3.78-32.6 3.78-49.153 2.363m106.812-26.468c11.816-16.542 20.323-34.03 23.63-52.462-2.836 13.234-9.925 24.577-16.542 36.392-37.338 23.16-3.308-13.706 0-27.885-40.173 50.098-5.672 29.776-7.1 43.954m39.24-102.56c2.363-35.92-7.1-24.577-10.398-10.87 3.78 2.363 6.617 25.522 10.398 10.87m-221.2-488.695c10.398 1.9 23.16 3.308 21.268 5.672 11.343-2.363 14.18-4.726-21.268-5.672m21.268 6.143l-7.562 1.418 7.1-.473.473-.945M982.866 318c1.418 32.14-9.453 47.735-18.905 75.148l-17.015 8.507c-14.18 27.412 1.418 17.487-8.507 39.228-21.74 19.378-66.64 60.97-80.82 64.75-10.398 0 7.1-12.288 9.453-17.015-29.303 20.323-23.63 30.248-68.53 42.536l-1.418-2.836c-110.595 52-264.67-51.044-262.308-191.887-.945 8.98-3.308 6.617-5.672 10.398-5.672-72.312 33.557-145.096 99.724-174.872 64.75-32.14 140.37-18.905 186.688 24.104-25.522-33.084-76.093-68.53-136.117-65.223-58.606.945-113.903 38.283-131.863 78.93-30.248 18.905-33.557 73.257-46.8 83.182-17.487 129.5 33.084 185.742 119.102 251.438 13.706 8.98 3.78 10.398 5.672 17.487-28.358-13.234-54.825-33.557-76.093-58.133 11.343 16.542 23.63 33.084 39.7 45.845-26.94-8.98-62.86-65.223-73.257-67.586 46.317 83.182 188.578 146.042 262.78 114.848-34.502 1.418-77.983.473-116.74-13.706-16.07-8.507-38.283-25.522-34.502-28.83 101.615 37.8 206.065 28.83 293.974-41.6 22.213-17.487 46.8-46.8 53.88-47.263-10.398 16.07 1.9 7.562-6.144 21.74 22.213-35.92-9.453-14.65 23.16-61.914l12.288 16.542c-4.726-29.776 36.865-66.168 32.6-112.958 9.453-14.18 10.398 15.597.473 48.68 14.18-36.865 3.78-42.536 7.1-73.257 3.78 10.398 8.98 21.268 11.816 31.666-8.98-35.447 9.453-60.024 13.706-80.347-4.726-1.9-14.18 15.597-16.07-26.467.473-18.432 5.2-9.453 7.1-14.18-3.78-1.9-12.76-16.07-18.432-43 4.254-6.144 10.87 16.542 16.542 17.015-3.78-21.268-9.925-37.338-9.925-53.88-16.542-34.502-5.672 4.726-19.378-14.65-17.487-54.825 14.65-12.76 16.542-37.338 26.467 38.283 41.6 98.306 48.68 122.883-5.2-30.248-13.706-59.55-24.577-87.436 8.035 3.308-12.76-61.914 10.398-18.905C1056.1 7.482 973.875-79 898.254-119.182c9.453 8.507 20.796 18.905 16.542 20.796-37.8-22.213-31.193-24.104-36.392-33.557-30.72-12.288-32.6.945-52.934 0-57.66-30.72-69.004-27.412-121.938-46.8l2.363 11.343c-38.283-12.76-44.427 4.726-86.018 0-2.363-1.9 13.234-7.1 26.467-8.98-36.865 4.726-35.447-7.1-71.367 1.418 8.98-6.144 18.432-10.398 27.885-15.597-30.248 1.9-72.312 17.487-59.078 3.308-49.153 22.213-136.6 52.934-185.742 98.78l-1.418-10.398C333.95-71.918 258.8-18.04 252.657 16.936l-6.144 1.418c-11.816 19.85-19.378 42.064-28.358 62.86-15.124 25.994-22.213 9.925-20.323 14.18-30.248 60.97-44.9 112.485-58.133 154.55 8.98 13.706 0 82.7 3.78 138.007-15.124 273.178 191.414 538.322 417.802 599.3 33.084 11.816 82.237 11.343 124.3 12.76-49.626-14.18-55.77-7.562-103.978-24.104-34.502-16.542-42.536-34.974-67.113-56.243l9.925 17.015c-48.208-17.015-27.885-21.268-67.113-33.557l10.398-13.706c-15.597-1.418-41.6-26.467-48.68-40.173l-17.015.473c-20.323-25.522-31.666-43.482-30.72-57.66l-7.562 8.507c-6.144-10.87-75.62-94.998-39.7-75.62-6.617-6.144-15.597-9.925-25.05-27.412l7.1-8.507c-17.487-22.213-31.666-51.044-30.72-60.496 9.453 12.288 15.597 14.65 22.213 17.015-43.954-108.704-46.317-6.144-79.4-110.595l7.1-.473c-5.2-8.035-8.507-17.015-12.76-25.522l2.836-30.248c-31.666-36.392-8.98-154.55-4.254-219.772 3.308-26.467 26.467-54.352 43.954-98.78l-10.87-1.9c20.323-35.92 117.2-143.68 161.638-138.007 21.74-27.412-4.254 0-8.507-7.1 47.735-49.153 62.387-34.974 94.525-43.482 34.502-20.323-29.776 8.035-13.234-8.035 60.024-15.124 42.536-34.974 120.52-42.536 8.035 4.726-18.905 7.1-25.994 13.234C622.724-92.24 730.956-86.57 800.905-53.958c81.292 37.8 172.5 150.295 176.3 256.164l4.254.945c-1.9 42.064 6.617 90.744-8.507 135.17l9.914-20.32m-492.95 142.732l-2.836 13.706c13.234 17.96 23.63 36.865 40.173 50.57-12.288-23.16-21.268-32.6-37.338-64.277m30.722-1.417c-7.1-7.562-10.87-17.015-15.597-25.994 4.254 16.07 13.234 29.776 21.74 43.954l-6.144-17.96m545.884-118.63l-2.836 7.562c-5.2 37.8-17.015 75.62-34.502 110.595 19.378-36.865 32.14-77.038 37.338-118.157m-431.507-534.54c13.234-4.726 33.084-2.836 47.263-6.144-18.432 1.418-36.865 2.363-55.297 4.726l8.035 1.418m-471.2 250.5c3.308 28.83-21.74 39.7 5.672 20.796 14.18-32.14-6.144-8.507-5.672-20.796m-31.666 132.8c6.144-18.905 7.562-30.72 9.925-41.6-17.487 21.74-8.035 26.467-9.925 41.6M2239.53 763.123c-4.2.1.8 2.2 6.3 3l4.1-3.5c-3.4.8-6.9.8-10.4.5m22.6-5.6c2.5-3.5 4.3-7.2 5-11.1-.6 2.8-2.1 5.2-3.5 7.7-7.9 4.9-.7-2.9 0-5.9-8.5 10.6-1.2 6.3-1.5 9.3m8.3-21.7c.5-7.6-1.5-5.2-2.2-2.3.8.5 1.4 5.4 2.2 2.3m-46.8-103.4c2.2.4 4.9.7 4.5 1.2 2.4-.5 3-1-4.5-1.2"/><path d="M2228.13 633.723l-1.6.3 1.5-.1.1-.2m69.9 105c.3 6.8-2 10.1-4 15.9l-3.6 1.8c-3 5.8.3 3.7-1.8 8.3-4.6 4.1-14.1 12.9-17.1 13.7-2.2 0 1.5-2.6 2-3.6-6.2 4.3-5 6.4-14.5 9l-.3-.6c-23.4 11-56-10.8-55.5-40.6-.2 1.9-.7 1.4-1.2 2.2-1.2-15.3 7.1-30.7 21.1-37 13.7-6.8 29.7-4 39.5 5.1-5.4-7-16.1-14.5-28.8-13.8-12.4.2-24.1 8.1-27.9 16.7-6.4 4-7.1 15.5-9.9 17.6-3.7 27.4 7 39.3 25.2 53.2 2.9 1.9.8 2.2 1.2 3.7-6-2.8-11.6-7.1-16.1-12.3 2.4 3.5 5 7 8.4 9.7-5.7-1.9-13.3-13.8-15.5-14.3 9.8 17.6 39.9 30.9 55.6 24.3-7.3.3-16.5.1-24.7-2.9-3.4-1.8-8.1-5.4-7.3-6.1 21.5 8 43.6 6.1 62.2-8.8 4.7-3.7 9.9-9.9 11.4-10-2.2 3.4.4 1.6-1.3 4.6 4.7-7.6-2-3.1 4.9-13.1l2.6 3.5c-1-6.3 7.8-14 6.9-23.9 2-3 2.2 3.3.1 10.3 3-7.8.8-9 1.5-15.5.8 2.2 1.9 4.5 2.5 6.7-1.9-7.5 2-12.7 2.9-17-1-.4-3 3.3-3.4-5.6.1-3.9 1.1-2 1.5-3-.8-.4-2.7-3.4-3.9-9.1.9-1.3 2.3 3.5 3.5 3.6-.8-4.5-2.1-7.9-2.1-11.4-3.5-7.3-1.2 1-4.1-3.1-3.7-11.6 3.1-2.7 3.5-7.9 5.6 8.1 8.8 20.8 10.3 26-1.1-6.4-2.9-12.6-5.2-18.5 1.7.7-2.7-13.1 2.2-4-5.3-19.5-22.7-37.8-38.7-46.3 2 1.8 4.4 4 3.5 4.4-8-4.7-6.6-5.1-7.7-7.1-6.5-2.6-6.9.2-11.2 0-12.2-6.5-14.6-5.8-25.8-9.9l.5 2.4c-8.1-2.7-9.4 1-18.2 0-.5-.4 2.8-1.5 5.6-1.9-7.8 1-7.5-1.5-15.1.3 1.9-1.3 3.9-2.2 5.9-3.3-6.4.4-15.3 3.7-12.5.7-10.4 4.7-28.9 11.2-39.3 20.9l-.3-2.2c-4.8 5.7-20.7 17.1-22 24.5l-1.3.3c-2.5 4.2-4.1 8.9-6 13.3-3.2 5.5-4.7 2.1-4.3 3-6.4 12.9-9.5 23.8-12.3 32.7 1.9 2.9 0 17.5.8 29.2-3.2 57.8 40.5 113.9 88.4 126.8 7 2.5 17.4 2.4 26.3 2.7-10.5-3-11.8-1.6-22-5.1-7.3-3.5-9-7.4-14.2-11.9l2.1 3.6c-10.2-3.6-5.9-4.5-14.2-7.1l2.2-2.9c-3.3-.3-8.8-5.6-10.3-8.5l-3.6.1c-4.3-5.4-6.7-9.2-6.5-12.2l-1.6 1.8c-1.3-2.3-16-20.1-8.4-16-1.4-1.3-3.3-2.1-5.3-5.8l1.5-1.8c-3.7-4.7-6.7-10.8-6.5-12.8 2 2.6 3.3 3.1 4.7 3.6-9.3-23-9.8-1.3-16.8-23.4l1.5-.1c-1.1-1.7-1.8-3.6-2.7-5.4l.6-6.4c-6.7-7.7-1.9-32.7-.9-46.5.7-5.6 5.6-11.5 9.3-20.9l-2.3-.4c4.3-7.6 24.8-30.4 34.2-29.2 4.6-5.8-.9 0-1.8-1.5 10.1-10.4 13.2-7.4 20-9.2 7.3-4.3-6.3 1.7-2.8-1.7 12.7-3.2 9-7.4 25.5-9 1.7 1-4 1.5-5.5 2.8 10.5-5.2 33.4-4 48.2 2.9 17.2 8 36.5 31.8 37.3 54.2l.9.2c-.4 8.9 1.4 19.2-1.8 28.6l2.1-4.3m-104.3 30.2l-.6 2.9c2.8 3.8 5 7.8 8.5 10.7-2.6-4.9-4.5-6.9-7.9-13.6m6.5-.3c-1.5-1.6-2.3-3.6-3.3-5.5.9 3.4 2.8 6.3 4.6 9.3l-1.3-3.8m115.5-25.1l-.6 1.6c-1.1 8-3.6 16-7.3 23.4 4.1-7.8 6.8-16.3 7.9-25m-91.3-113.1c2.8-1 7-.6 10-1.3-3.9.3-7.8.5-11.7 1l1.7.3m-99.7 53c.7 6.1-4.6 8.4 1.2 4.4 3-6.8-1.3-1.8-1.2-4.4m-6.7 28.1c1.3-4 1.6-6.5 2.1-8.8-3.7 4.6-1.7 5.6-2.1 8.8"/></g><path d="M2068.13 997.423c0 36.7 19.5 36.7 22.4 36.7 8.1 0 13.3-4.4 15.5-12.1l.3 11.6c2.5-.1 5-.4 9-.4 1.4 0 2.6 0 3.6.1 1 0 2.1.1 3.3.3-2.1-4.2-3.6-13.5-3.6-33.9 0-19.8 0-53.3 1.7-63.5-4.7 2.2-8.7 3.7-17.6 4.4 3.5 3.8 3.5 5.7 3.5 22.9-2.5-.8-5.6-1.7-10.9-1.7-23.4.2-27.2 20.5-27.2 35.6m37.8-15.3c-.1.1-.1 21.1-.4 26.6-.3 4.4-.7 13.9-10 13.9-9.6 0-12-11.1-12.8-15.9-.9-5.3-.9-9.8-.9-11.7 0-6.3.4-23.7 15.1-23.7 4.4 0 6.9 1.3 8.9 2.3zm68 10c0-15.2-3-30.2-22.3-30.2-26.6 0-26.6 29.4-26.6 35.7 0 26.4 11.9 36.9 31.8 36.9 8.9 0 13.2-1.3 15.5-2-.1-4.7.5-7.7 1.3-11.7-2.7 1.7-6.3 3.9-14.1 3.9-20.3 0-20.6-18.5-20.6-24.9h34.7l.3-7.7m-35.1-1.3c.1-10.8 2.3-20.5 11.6-20.5 10.2 0 10.9 11.2 10.7 20.5zm40.1 21.1c0 9.6 0 15.1-1.6 19.3 5.3 2.1 12 3.3 19.9 3.3 5.1 0 19.8 0 27.8-16.3 3.8-7.6 5.1-17.7 5.1-25.4 0-4.7-.5-15-4.3-21.5-3.6-6.1-9.5-9.2-15.8-9.2-12.5 0-16.2 10.4-18.1 15.8 0-6.6.1-29.8 1.2-41.7-8.5 3.9-13.7 4.6-19.3 5.1 5.1 2.1 5.1 10.7 5.1 38.7v31.9m37.4-14.2c0 12.1-2.2 28.4-17.3 28.4-2.1 0-4.7-.4-6.4-.8-.3-4.7-.3-12.8-.3-22.1 0-11.2 1.2-17.1 2.1-19.9 2.7-9.2 8.9-9.4 10-9.4 10 0 11.9 13.6 11.9 23.8zm38.9 36c-2.6-.4-4.4-.7-8.2-.7-4.2 0-7 .3-10 .7 1.3-2.5 1.8-3.7 2.2-12.1.5-11.6.7-42.6-.3-49.1-.7-5-1.8-5.7-3.6-7 10.7-1 13.7-1.8 18.6-4.2-1 5.7-1.2 8.6-1.2 17.3-.3 44.9-.4 49.7 2.5 55.1m5.9-20.9c0 8.2 2.5 16.4 9.8 19.9 3.3 1.4 6.5 1.4 7.6 1.4 12 0 16-8.9 18.5-14.3-.1 5.7 0 9.2.4 13.8 2.3-.1 4.7-.4 8.6-.4 2.2 0 4.3.3 6.5.4-1.4-2.2-2.2-3.5-2.6-8.6-.3-4.9-.3-9.9-.3-16.8l.1-26.6c0-9.9-2.6-19.7-22.2-19.7-12.9 0-20.5 3.9-24.2 5.9 1.6 2.9 2.9 5.3 4 10.9 5.1-4.4 11.7-6.8 18.5-6.8 10.8 0 10.8 7.2 10.8 17.3-2.5-.1-4.6-.4-8.1-.4-16.5.2-27.4 6.6-27.4 24m35.8-16c-.3 8.2-.4 13.9-2.6 18.5-2.7 5.9-7.3 7.6-10.7 7.6-7.8 0-9.5-6.5-9.5-12.9 0-12.2 10.9-13.2 15.9-13.2zm75.1 24c.1 4.4.1 9.1 2 12.9-2.9-.3-4.6-.7-9.9-.7-3.1 0-4.8.3-7.3.7.5-1.7.8-2.3 1-4.6.4-3 .7-13 .7-16.5v-14.1c0-6.1 0-15-.4-18.1-.3-2.2-.9-8.2-8.5-8.2-7.4 0-9.9 5.5-10.8 9.9-1 4.6-1 9.5-1 28.8.1 16.7.1 18.2 1.4 22.8-2.2-.3-4.9-.5-8.9-.5-3.1 0-5.2.1-7.8.5.9-2.1 1.4-3.1 1.7-10.4.3-7.2.8-42.4-.4-50.7-.6-5.1-2-6.3-3.4-7.6 10.6-.5 13.9-2.2 17.2-3.9v13.8c1.6-4 4.8-13 17.9-13 16.3 0 16.4 11.9 16.5 19.7v39.2"/><path d="M2256.33 942.823l-10.8 10.8-10.8-10.8 10.8-10.8 10.8 10.8" fill="#d70751"/></svg>