<svg xmlns="http://www.w3.org/2000/svg" xmlns:xlink="http://www.w3.org/1999/xlink" width="26px" height="14px" viewBox="0 0 26 14" version="1.1">
    <g id="Page-1" stroke="none" stroke-width="1" fill="none" fill-rule="evenodd">
        <path stroke="#027AFF" d="M12.6026943,0.625 C13.9717815,0.625 15.2791348,0.666456978 16.524752,0.749498902 C17.7435013,0.830745055 18.8609955,0.997782746 19.8770064,1.25214437 C20.8500019,1.49569874 21.6965756,1.85702431 22.4143098,2.34137486 C23.0983314,2.80296461 23.6279657,3.4148042 24.00514,4.17519455 C24.395307,4.96177862 24.5803157,5.94831245 24.5803157,7.12933027 C24.5803157,8.33430768 24.3540819,9.41567446 23.8932896,10.3714574 C23.4439033,11.3037974 22.832134,12.0432866 22.0521286,12.5848126 C21.2910843,13.1131747 20.4285354,13.375 19.4649023,13.375001 C18.8552405,13.3760668 18.3030368,13.2941458 17.8093188,13.1237476 C17.2999994,12.9479286 16.8327592,12.7292899 16.4081823,12.4668075 C15.9585595,12.1887574 15.5410504,11.9116725 15.1557431,11.6354215 C14.7352901,11.3339724 14.3355276,11.0823905 13.9569888,10.8798321 C13.5009311,10.6357809 13.0486097,10.5195247 12.6026943,10.5195247 C12.1567788,10.5195247 11.7044574,10.6357809 11.2484186,10.879822 C10.8700114,11.0823033 10.4704184,11.3334687 10.0501582,11.634147 C9.6645448,11.9100287 9.24668308,12.1873365 8.79665635,12.4661969 C8.37244291,12.7290629 7.90560032,12.9475168 7.39665121,13.1226355 C6.90269522,13.2925907 6.35250283,13.375 5.74700208,13.375 C4.78073336,13.375 3.91585309,13.1132587 3.15399355,12.5846969 C2.37347879,12.0431926 1.76143011,11.3037416 1.31201628,10.3714325 C0.851299127,9.41569277 0.625,8.33431857 0.624995243,7.12689178 C0.62041095,5.95191766 0.804032347,4.96770864 1.19607372,4.17968248 C1.57541486,3.41717405 2.10592894,2.80527671 2.78989406,2.34600301 C3.50798517,1.86380683 4.35493759,1.50348384 5.3283436,1.25980214 C6.34477364,1.00534983 7.46269529,0.836994581 8.68186163,0.753244285 C9.927112,0.667702951 11.2340578,0.625 12.6026943,0.625 Z" stroke-width="1.25" fill-rule="nonzero"/>
    </g>
</svg>