<svg viewBox="0 0 1350 290">
  <rect fill="#2563EB" height="290" width="1350" />
  <g>
   <path fill="#FFFFFF" d="m142.41258,66.40064l17.05001,0c6.16703,0 11.12483,4.95781 11.12483,11.12483l0,134.7072c0,6.16703 -4.95781,11.12483 -11.12483,11.12483l-17.05001,0c-6.16703,0 -11.12483,-4.95781 -11.12483,-11.12483l0,-7.37625c-9.91561,13.05959 -25.7564,22.24966 -50.18267,22.24966c-48.61068,0 -76.54368,-41.23443 -76.54368,-82.1061c0,-41.23443 27.933,-82.34794 76.54368,-82.34794c24.42626,0 40.26705,9.311 50.18267,22.24966l0,-7.37625c0,-6.16703 4.95781,-11.12483 11.12483,-11.12483zm-12.69682,78.72028c0,-24.42626 -15.47803,-44.62025 -42.44365,-44.62025s-42.44365,20.43583 -42.44365,44.62025c0,23.82165 15.47803,44.62025 42.44365,44.62025s42.44365,-20.55675 42.44365,-44.62025z" class="st1"/>
   <path fill="#FFFFFF" d="m367.69042,145.12092c0,40.87166 -27.933,82.1061 -76.78552,82.1061c-24.18442,0 -39.90429,-9.311 -49.8199,-22.24966l0,67.47452c0,5.92518 -4.95781,10.88299 -11.12483,10.88299l-17.29186,0c-5.92518,0 -10.88299,-4.95781 -10.88299,-10.88299l0,-194.9264c0,-6.16703 4.95781,-11.12483 10.88299,-11.12483l17.29186,0c6.16703,0 11.12483,4.95781 11.12483,11.12483l0,7.37625c9.91561,-13.05959 25.7564,-22.24966 49.8199,-22.24966c48.85252,0 76.78552,41.23443 76.78552,82.46886zm-40.26705,0c0,-24.18442 -15.47803,-44.62025 -42.44365,-44.62025c-27.20747,0 -42.44365,20.19399 -42.44365,44.62025c0,24.18442 15.23618,44.62025 42.44365,44.62025c26.96562,-0.12092 42.44365,-20.7986 42.44365,-44.62025z" class="st1"/>
   <path fill="#FFFFFF" d="m457.77738,102.3145l-22.24966,0l0,57.31707c0,18.01739 2.41844,28.53761 24.18442,28.53761c0.36277,0 0.36277,0 0.60461,0c4.59504,0 8.70639,3.74858 8.70639,8.34362l0,20.43583c0,4.3532 -3.14397,7.73901 -7.1344,8.34362c-2.78121,0.36277 -5.56242,0.36277 -9.311,0.36277c-40.26705,0 -56.34969,-26.96562 -56.34969,-59.49367l0,-63.84686l-14.26881,0c-5.92518,0 -10.88299,-4.95781 -10.88299,-10.88299l0,-13.90604c0,-6.16703 4.95781,-11.12483 10.88299,-11.12483l14.26881,0l0,-21.64505c0,-6.16703 4.59504,-11.12483 10.88299,-11.12483l17.29186,0c6.16703,0 11.12483,4.95781 11.12483,11.12483l0,21.64505l22.24966,0c6.16703,0 11.12483,4.95781 11.12483,11.12483l0,13.90604c0,5.92518 -4.95781,10.88299 -11.12483,10.88299z" class="st1"/>
   <path fill="#FFFFFF" d="m620.78035,66.40064l17.05001,0c6.16703,0 11.12483,4.95781 11.12483,11.12483l0,134.7072c0,6.16703 -4.95781,11.12483 -11.12483,11.12483l-17.05001,0c-6.16703,0 -11.12483,-4.95781 -11.12483,-11.12483l0,-7.37625c-9.91561,13.05959 -25.7564,22.24966 -50.18267,22.24966c-48.61068,0 -76.54368,-41.23443 -76.54368,-82.1061c0,-41.23443 27.933,-82.34794 76.54368,-82.34794c24.42626,0 40.26705,9.311 50.18267,22.24966l0,-7.37625c-0.12092,-6.16703 4.83688,-11.12483 11.12483,-11.12483zm-12.69682,78.72028c0,-24.42626 -15.47803,-44.62025 -42.44365,-44.62025s-42.44365,20.43583 -42.44365,44.62025c0,23.82165 15.47803,44.62025 42.44365,44.62025s42.44365,-20.55675 42.44365,-44.62025z" class="st1"/>
   <path fill="#FFFFFF" d="m845.93727,145.12092c0,40.87166 -27.933,82.1061 -76.54368,82.1061c-24.42626,0 -40.26705,-9.311 -50.18267,-22.24966l0,7.37625c0,6.16703 -4.95781,11.12483 -11.12483,11.12483l-17.05001,0c-6.16703,0 -11.12483,-4.95781 -11.12483,-11.12483l0,-194.56363c0,-6.16703 4.95781,-11.12483 11.12483,-11.12483l17.05001,0c6.16703,0 11.12483,4.95781 11.12483,11.12483l0,67.23268c9.91561,-13.05959 25.7564,-22.24966 50.18267,-22.24966c48.7316,-0.12092 76.54368,41.11351 76.54368,82.34794zm-40.26705,0c0,-24.18442 -15.47803,-44.62025 -42.44365,-44.62025c-26.96562,0 -42.44365,20.19399 -42.44365,44.62025c0,24.18442 15.47803,44.62025 42.44365,44.62025c26.96562,-0.12092 42.44365,-20.7986 42.44365,-44.62025z" class="st1"/>
   <path fill="#FFFFFF" d="m996.24342,66.40064l17.05001,0c6.16703,0 11.12483,4.95781 11.12483,11.12483l0,134.7072c0,6.16703 -4.95781,11.12483 -11.12483,11.12483l-17.05001,0c-6.16703,0 -11.12483,-4.95781 -11.12483,-11.12483l0,-7.37625c-9.91561,13.05959 -25.7564,22.24966 -50.18267,22.24966c-48.61068,0 -76.54368,-41.23443 -76.54368,-82.1061c0,-41.23443 27.933,-82.34794 76.54368,-82.34794c24.42626,0 40.26705,9.311 50.18267,22.24966l0,-7.37625c-0.12092,-6.16703 4.83688,-11.12483 11.12483,-11.12483zm-12.69682,78.72028c0,-24.42626 -15.47803,-44.62025 -42.44365,-44.62025c-26.96562,0 -42.44365,20.43583 -42.44365,44.62025c0,23.82165 15.47803,44.62025 42.44365,44.62025c26.96562,-0.12092 42.44365,-20.55675 42.44365,-44.62025z" class="st1"/>
   <path fill="#FFFFFF" d="m1175.57087,175.1096c0,30.71421 -22.24966,51.9965 -66.62807,51.9965c-26.36101,0 -52.60111,-8.94823 -63.84686,-29.14222c-2.41844,-4.3532 -0.36277,-10.27838 4.95781,-11.72944l22.00782,-6.77164c3.74858,-1.20922 7.37625,0.36277 9.55284,3.74858c3.38582,5.56242 11.4876,11.12483 27.933,11.12483s25.7564,-6.16703 25.7564,-16.68725c0,-14.51065 -22.61243,-14.26881 -41.23443,-18.01739c-30.35144,-6.16703 -45.82947,-21.04044 -45.82947,-47.76422c0,-29.74683 25.15179,-49.21529 61.67026,-49.21529c23.82165,0 47.03869,10.27838 56.9543,30.95605c2.1766,4.59504 -0.60461,10.27838 -5.56242,11.4876l-20.19399,4.95781c-3.38582,0.96738 -7.1344,-0.60461 -8.94823,-3.74858c-3.74858,-5.92518 -10.88299,-10.52022 -22.24966,-10.52022c-11.4876,0 -23.21704,3.99043 -23.21704,15.84079c0,13.90604 21.04044,15.23618 33.49542,18.01739c38.69507,8.34362 55.38231,18.86385 55.38231,45.4667z" class="st1"/>
   <path fill="#FFFFFF" d="m1345.34548,149.35319c0,5.92518 -4.95781,10.88299 -10.88299,10.88299l-106.29051,0c5.56242,20.7986 22.9752,31.92343 44.62025,31.92343c14.26881,0 24.78903,-5.92518 30.95605,-11.12483c2.78121,-2.41844 6.52979,-2.78121 9.55284,-0.96738l17.65462,10.52022c4.59504,2.78121 5.32057,8.94823 1.57199,13.05959c-13.6642,13.6642 -34.70464,23.57981 -59.73551,23.57981c-51.9965,0 -86.45929,-34.34187 -86.45929,-82.1061c0,-49.21529 36.88124,-82.34794 80.29226,-82.34794c44.62025,-0.12092 80.89687,31.1979 78.72028,86.58021zm-39.05783,-19.46846c-3.99043,-20.7986 -18.01739,-32.16527 -39.05783,-32.16527c-19.22661,0 -34.34187,12.09221 -39.05783,32.16527l78.11567,0z" class="st1"/>
  </g>
</svg>