<svg viewBox="0 0 1200 1200" xmlns="http://www.w3.org/2000/svg" version="1.1" xml:space="preserve">
  <rect fill="#2563EB" width="1200" height="1200"/>
  <path fill="#FFFFFF" d="m454.38167,829.85001l-2.3,0c-43.1,0 -70,-46.5 -48.4,-83.9l143.4,-248.5c21.5,-37.3 75.4,-37.3 96.9,0l208.7,361.5c10.1,17.4 28.5,28 48.4,28l96.9,0l-344,-596c-25.9,-44.8 -90.6,-44.8 -116.5,0l-327.9,567.8c-21.5,37.3 5.4,83.9 48.4,83.9l480.3,0c13.9,0 22.6,-15.1 15.6,-27.1l-142,-246.1c-7.3,-12.5 -25.2,-12.5 -32.5,0l-76.6,132.7c-10,17.2 -28.4,27.7 -48.4,27.7z" />
</svg>