<svg xmlns="http://www.w3.org/2000/svg" xmlns:xlink="http://www.w3.org/1999/xlink" width="64px" height="64px" viewBox="0 0 64 64" version="1.1">
    <g id="icon-ios" stroke="none" stroke-width="1" fill="none" fill-rule="evenodd" transform="translate(17.700000, 11.000000)">
		<path d="M22.4960938,50.2988281 C26.5078125,50.2988281 28.6660156,48.1152344 28.6660156,44.1289062 L28.6660156,6.14453125 C28.6660156,2.15820312 26.5078125,0 22.4960938,0 L6.1953125,0 C2.15820312,0 0,2.15820312 0,6.14453125 L0,44.1289062 C0,48.1152344 2.15820312,50.2988281 6.1953125,50.2988281 L22.4960938,50.2988281 Z M22.3183594,48.3945312 L6.34765625,48.3945312 C3.30078125,48.3945312 1.87890625,47.0488281 1.87890625,44.0019531 L1.87890625,6.296875 C1.87890625,3.25 3.30078125,1.87890625 6.34765625,1.87890625 L22.3183594,1.87890625 C25.390625,1.87890625 26.7871094,3.25 26.7871094,6.296875 L26.7871094,44.0019531 C26.7871094,47.0488281 25.390625,48.3945312 22.3183594,48.3945312 Z M17.1640625,5.5859375 C17.8242188,5.5859375 18.3066406,5.10351562 18.3066406,4.44335938 C18.3066406,3.7578125 17.8242188,3.30078125 17.1640625,3.30078125 L11.5273438,3.30078125 C10.8417969,3.30078125 10.359375,3.7578125 10.359375,4.44335938 C10.359375,5.10351562 10.8417969,5.5859375 11.5273438,5.5859375 L17.1640625,5.5859375 Z M19.4492188,46.71875 C19.8554688,46.71875 20.2109375,46.3886719 20.2109375,45.9570312 C20.2109375,45.5253906 19.8554688,45.1953125 19.4492188,45.1953125 L9.2421875,45.1953125 C8.81054688,45.1953125 8.48046875,45.5253906 8.48046875,45.9570312 C8.48046875,46.3886719 8.81054688,46.71875 9.2421875,46.71875 L19.4492188,46.71875 Z" id="􀟜" fill="#027AFF" fill-rule="nonzero"/>
    </g>
</svg>