<svg xmlns="http://www.w3.org/2000/svg" xmlns:xlink="http://www.w3.org/1999/xlink" width="64px" height="64px" viewBox="0 0 64 64" version="1.1">
    <g id="icon-ipados" stroke="none" stroke-width="1" fill="none" fill-rule="evenodd">
        <path d="M45.3371094,61.234375 C47.4699219,61.234375 49.1076172,60.6673177 50.2501953,59.5332031 C51.3927734,58.3990885 51.9640625,56.7740885 51.9640625,54.6582031 L51.9640625,13.5761719 C51.9640625,11.4602865 51.3927734,9.83528646 50.2501953,8.70117188 C49.1076172,7.56705729 47.4699219,7 45.3371094,7 L18.7023438,7 C16.5695313,7 14.9276042,7.56705729 13.7765625,8.70117188 C12.6255208,9.83528646 12.05,11.4602865 12.05,13.5761719 L12.05,54.6582031 C12.05,56.7740885 12.6255208,58.3990885 13.7765625,59.5332031 C14.9276042,60.6673177 16.5695313,61.234375 18.7023438,61.234375 L45.3371094,61.234375 Z M45.159375,59.3554688 L18.8546875,59.3554688 C17.2466146,59.3554688 16.0236328,58.9407552 15.1857422,58.1113281 C14.3478516,57.281901 13.9289063,56.063151 13.9289063,54.4550781 L13.9289063,13.7792969 C13.9289063,12.171224 14.3478516,10.9482422 15.1857422,10.1103516 C16.0236328,9.27246094 17.2466146,8.85351562 18.8546875,8.85351562 L45.159375,8.85351562 C46.784375,8.85351562 48.0158203,9.27246094 48.8537109,10.1103516 C49.6916016,10.9482422 50.1105469,12.171224 50.1105469,13.7792969 L50.1105469,54.4550781 C50.1105469,56.063151 49.6916016,57.281901 48.8537109,58.1113281 C48.0158203,58.9407552 46.784375,59.3554688 45.159375,59.3554688 Z M38.8878906,57.4257812 C39.1079427,57.4257812 39.2941406,57.3538411 39.4464844,57.2099609 C39.5988281,57.0660807 39.675,56.8841146 39.675,56.6640625 C39.675,56.4440104 39.5988281,56.2620443 39.4464844,56.1181641 C39.2941406,55.9742839 39.1079427,55.9023438 38.8878906,55.9023438 L25.1261719,55.9023438 C24.9061198,55.9023438 24.7241536,55.9742839 24.5802734,56.1181641 C24.4363932,56.2620443 24.3644531,56.4440104 24.3644531,56.6640625 C24.3644531,56.8841146 24.4363932,57.0660807 24.5802734,57.2099609 C24.7241536,57.3538411 24.9061198,57.4257812 25.1261719,57.4257812 L38.8878906,57.4257812 Z" id="􀟠" fill="#027AFF" fill-rule="nonzero"/>
    </g>
</svg>