<svg xmlns="http://www.w3.org/2000/svg" xmlns:xlink="http://www.w3.org/1999/xlink" viewBox="6.55 6.55 54.64 54.64"><linearGradient id="a" gradientUnits="userSpaceOnUse" x1="18.522484" x2="18.522484" y1="290.38303" y2="235.90349"><stop offset="0" stop-color="#1d6af2"/><stop offset="1" stop-color="#1ad1fd"/></linearGradient><linearGradient id="b" gradientUnits="userSpaceOnUse" x1="49.212502" x2="49.212502" y1="290.38541" y2="235.87601"><stop offset="0" stop-color="#d1dbe6"/><stop offset="1" stop-color="#f1f1f3" stop-opacity=".983122"/></linearGradient><g stroke="#474747" transform="translate(0 -229.26667)"><path d="m6.6145833 278.47917v-30.69167c.0000001-6.36236 5.5661407-11.90625 11.9062497-11.90625h15.875s-6.879166 17.26018-6.879166 30.42709c0 .79652.773617 1.5875 1.5875 1.5875h6.614583c0 15.28538 2.081305 19.39529 2.910416 22.48958l-20.108333.00004c-6.323237 0-11.9062496-5.53589-11.9062496-11.90625z" fill="url(#a)" stroke-width=".132292"/><path d="m20.902083 252.81459v3.43958" fill="none" stroke-linecap="round" stroke-width="2.38125"/><path d="m29.104167 267.89584c-.807809 0-1.5875-.79082-1.5875-1.5875 0-13.26043 6.879166-30.42709 6.879166-30.42709h14.816667c6.370595 0 11.90625 5.55471 11.90625 11.90625v30.69167c0 6.33185-5.534954 11.90625-11.90625 11.90625h-10.583334c-.821428-3.06561-2.910416-6.63856-2.910416-22.48958z" fill="url(#b)" stroke-width=".132292"/><g fill="none" stroke-linecap="round"><path d="m44.846875 252.6823v3.43958" stroke-width="2.38125"/><path d="m17.197917 272.65834c2.382212 4.12611 8.982379 6.61458 15.610416 6.61458 6.615177 0 13.210027-2.45698 15.610417-6.61458" stroke-width="1.5875"/></g></g></svg>